P3
4 4
255
0 0 0 10 10 10 0 0 0 51 51 51
0 0 0 68 68 68 0 0 0 0 0 0
0 0 0 0 0 0 20 20 20 0 0 0
51 51 51 0 0 0 0 0 0 102 102 102