P3
4 4
255
0 0 3   0 0 3   0 0 3   0 0 3   
0 0 0   0 0 0   0 0 0   0 0 0   
0 0 0   0 0 0   0 0 0   0 0 0   
0 0 0   0 0 0   0 0 0   0 0 0   
